<svg width="29" height="29" viewBox="0 0 29 29" fill="none" xmlns="http://www.w3.org/2000/svg">
<circle cx="14.5" cy="14.5" r="13.5" stroke="white" stroke-width="2"/>
<path d="M15.0857 18.3599C15.0857 17.8076 14.638 17.3599 14.0857 17.3599C13.5334 17.3599 13.0857 17.8076 13.0857 18.3599L15.0857 18.3599ZM13.3786 19.4928C13.7691 19.8834 14.4023 19.8834 14.7928 19.4928L21.1568 13.1289C21.5473 12.7384 21.5473 12.1052 21.1568 11.7147C20.7662 11.3241 20.1331 11.3241 19.7425 11.7147L14.0857 17.3715L8.42884 11.7147C8.03832 11.3241 7.40515 11.3241 7.01463 11.7147C6.6241 12.1052 6.6241 12.7384 7.01463 13.1289L13.3786 19.4928ZM13.0857 18.3599L13.0857 18.7857L15.0857 18.7857L15.0857 18.3599L13.0857 18.3599Z" fill="white"/>
</svg>
