<svg xmlns="http://www.w3.org/2000/svg" width="299" height="110" viewBox="0 0 299 110" fill="none">
<path d="M6 107.5V7.50009C17.5 5.50012 32.8 10.2001 38 11.0001C44.5 12.0001 90 31.0001 100 33.5001C116 40.5001 135.15 43.8618 154.5 51.5001C173.5 59.0001 196 60.5001 196 60.5001H293V107.5H6Z" fill="url(#paint0_linear_126_8118)" fill-opacity="0.6"/>
<path d="M5 6C59.5691 10.3741 62.555 21.8282 92.1981 31.4317C127.64 42.9137 151.727 53.0693 193.46 60.3957C193.46 60.3957 249.37 60.3957 291 60.3957" stroke="url(#paint1_linear_126_8118)" stroke-width="3" stroke-linecap="round"/>
<circle cx="7" cy="7" r="4" fill="#3E65EF"/>
<circle cx="7" cy="7" r="5.5" stroke="#3E65EF" stroke-opacity="0.25" stroke-width="3" stroke-linecap="round"/>
<circle cx="292" cy="60" r="4" fill="#1CD774"/>
<circle cx="292" cy="60" r="5.5" stroke="#1CD774" stroke-opacity="0.25" stroke-width="3" stroke-linecap="round"/>
<circle cx="196" cy="60" r="4" fill="#1CD774"/>
<circle cx="196" cy="60" r="5.5" stroke="#1CD774" stroke-opacity="0.25" stroke-width="3" stroke-linecap="round"/>
<circle cx="101" cy="34" r="4" fill="#3E65EF"/>
<circle cx="101" cy="34" r="5.5" stroke="#3E65EF" stroke-opacity="0.25" stroke-width="3" stroke-linecap="round"/>
<path d="M6 109.5V16" stroke="#F6F8FA" stroke-dasharray="2 2"/>
<path d="M101 109.5V38" stroke="#F6F8FA" stroke-dasharray="2 2"/>
<path d="M197 109.5V71" stroke="#F6F8FA" stroke-dasharray="2 2"/>
<path d="M293 109.5V70.5" stroke="#F6F8FA" stroke-dasharray="2 2"/>
<defs>
<linearGradient id="paint0_linear_126_8118" x1="149.593" y1="7.00879" x2="149.593" y2="107.5" gradientUnits="userSpaceOnUse">
<stop stop-color="#3E65EF"/>
<stop offset="1" stop-color="#F6F8FA"/>
</linearGradient>
<linearGradient id="paint1_linear_126_8118" x1="256" y1="72.5" x2="6.29699" y2="6.42677" gradientUnits="userSpaceOnUse">
<stop offset="0.00229167" stop-color="#1CD774"/>
<stop offset="0.428803" stop-color="#BDFF00"/>
<stop offset="0.629891" stop-color="#3E65EF"/>
<stop offset="1" stop-color="#3E65EF"/>
</linearGradient>
</defs>
</svg>