<svg width="115" height="20" viewBox="0 0 115 20" fill="none" xmlns="http://www.w3.org/2000/svg">
<path d="M10 15L4.12215 18.0902L5.24472 11.5451L0.489435 6.90983L7.06107 5.95492L10 0L12.9389 5.95492L19.5106 6.90983L14.7553 11.5451L15.8779 18.0902L10 15Z" fill="#FFD400"/>
<path d="M58 15L52.1221 18.0902L53.2447 11.5451L48.4894 6.90983L55.0611 5.95492L58 0L60.9389 5.95492L67.5106 6.90983L62.7553 11.5451L63.8779 18.0902L58 15Z" fill="#FFD400"/>
<path d="M34 15L28.1221 18.0902L29.2447 11.5451L24.4894 6.90983L31.0611 5.95492L34 0L36.9389 5.95492L43.5106 6.90983L38.7553 11.5451L39.8779 18.0902L34 15Z" fill="#FFD400"/>
<path d="M81 15L75.1221 18.0902L76.2447 11.5451L71.4894 6.90983L78.0611 5.95492L81 0L83.9389 5.95492L90.5106 6.90983L85.7553 11.5451L86.8779 18.0902L81 15Z" fill="#FFD400"/>
<path d="M105 15L99.1221 18.0902L100.245 11.5451L95.4894 6.90983L102.061 5.95492L105 0L107.939 5.95492L114.511 6.90983L109.755 11.5451L110.878 18.0902L105 15Z" fill="#FFD400"/>
</svg>
